<svg width="22" height="19" fill="none" xmlns="http://www.w3.org/2000/svg"><path fill-rule="evenodd" clip-rule="evenodd" d="M21.319 3.952l-2.56 9.387c-.048.174-.2.3-.38.313l-9.964.767-.472.941h9.55a.427.427 0 010 .854H7.254a.427.427 0 01-.381-.618l.55-1.1-.136.01h-.033a.427.427 0 01-.414-.322L3.595 1.164a.426.426 0 00-.41-.31H.426a.427.427 0 110-.854h2.757c.58 0 1.087.39 1.237.95l.616 2.471a.446.446 0 01.083-.008h15.787a.427.427 0 01.412.54zM9.386 8.96c0-.236.19-.427.426-.427h2.134V6.4a.427.427 0 11.853 0v2.133h2.133a.427.427 0 110 .854H12.8v2.133a.427.427 0 01-.853 0V9.387H9.813a.427.427 0 01-.426-.427zm-4.14-4.693h15.101l-2.334 8.557-10.434.803-2.333-9.36zm3.286 12.8a.853.853 0 100 1.707.853.853 0 000-1.707zm6.827.853a.853.853 0 111.707 0 .853.853 0 01-1.707 0z" fill="#fff"/></svg>