<svg width="19" height="24" fill="none" xmlns="http://www.w3.org/2000/svg"><path fill-rule="evenodd" clip-rule="evenodd" d="M16.29 3.84a.96.96 0 01.96.914l.869 18.24a.96.96 0 01-.96 1.006H1.8a.96.96 0 01-.958-1.006l.869-18.24a.96.96 0 01.959-.914h3.017a3.84 3.84 0 017.68 0h2.925zm-3.884 0A2.883 2.883 0 009.526.96a2.883 2.883 0 00-2.88 2.88h5.76zM2.67 4.8h3.017v3.36a.48.48 0 00.96 0V4.8h5.76v3.36a.48.48 0 10.96 0V4.8h2.914l.694 14.4H1.984l.685-14.4zm-.732 15.36L1.8 23.04h15.36l-.14-2.88H1.938z" fill="#333"/></svg>