<svg width="57" height="33" fill="none" xmlns="http://www.w3.org/2000/svg"><path d="M14.952 19.921c-1.414-.987-2.963.285-2.963.285a4.984 4.984 0 01-6.655-1.044 5.067 5.067 0 01.395-6.77 4.982 4.982 0 016.73-.25c.767.47 1.73.46 2.488-.023 0 0 1.705-1.423-.697-3.32h.07a8.738 8.738 0 00-11.673 1.37 8.886 8.886 0 00.136 11.832A8.738 8.738 0 0014.485 23.1c2.054-1.883.467-3.178.467-3.178zm25.781 0c-1.413-.986-2.958.285-2.958.285a4.98 4.98 0 01-6.644-1.048 5.063 5.063 0 01.395-6.76 4.978 4.978 0 016.72-.256 2.342 2.342 0 002.483-.023s1.705-1.423-.697-3.32h.07a8.734 8.734 0 00-11.663 1.379A8.881 8.881 0 0028.58 22a8.733 8.733 0 0011.693 1.098c2.049-1.883.461-3.178.461-3.178zM20.93 5.9c1.025 0 1.856-1.006 1.856-2.248 0-1.241-.831-2.248-1.857-2.248-1.024 0-1.855 1.007-1.855 2.248 0 1.242.83 2.248 1.855 2.248zm1.856 3.297a1.862 1.862 0 00-1.854-1.775c-.989 0-1.804.78-1.854 1.775v13.46c-.034.69.311 1.342.9 1.697a1.845 1.845 0 001.909 0 1.872 1.872 0 00.899-1.696V9.197zM46.834 5.9c1.025 0 1.856-1.006 1.856-2.248 0-1.241-.83-2.248-1.856-2.248-1.025 0-1.856 1.007-1.856 2.248 0 1.242.831 2.248 1.856 2.248zm1.856 3.297a1.862 1.862 0 00-1.854-1.775 1.86 1.86 0 00-1.853 1.775v13.46a1.87 1.87 0 00.898 1.697 1.845 1.845 0 001.91 0 1.872 1.872 0 00.899-1.696V9.197zm8.018-6.854a1.872 1.872 0 00-.9-1.696 1.845 1.845 0 00-1.909 0A1.872 1.872 0 0053 2.343v20.314c-.034.69.311 1.342.899 1.697a1.845 1.845 0 001.91 0 1.872 1.872 0 00.899-1.696V2.343zM26.582 27.818c-.838-.797-2.28-.28-2.28-.28a4.741 4.741 0 01-3.37 1.41 4.742 4.742 0 01-3.37-1.41s-1.447-.517-2.286.28a1.96 1.96 0 00-.343 2.253 8.357 8.357 0 005.996 2.542c2.258 0 4.42-.916 5.997-2.542a1.945 1.945 0 00-.344-2.253z" fill="#D84727"/></svg>