<svg width="367" height="241" fill="none" xmlns="http://www.w3.org/2000/svg"><g clip-path="url(#clip0_0:799)"><path d="M356.729 137.197l-66.454 56.534-14.539 12.368-40.687-.248-34.723-.211-2.884-.017-7.047-8.269-28.016-32.872-14.063-16.503-4.228-4.961-3.059-3.59-6.817-7.998-11.037-12.949 11.178-9.509 10.676-9.082 7.673-6.528 96.617-82.194 107.41 126.029z" fill="#F1DDC9"/><path d="M158.477 32.668H31.117v91.986h127.36V32.668zm147.249 190.063h-119.98v.641h119.98v-.641z" fill="#3F3D56"/><path d="M363.767 205.744h-96.033s-1.947-28.525 9.571-28.849c11.517-.324 10.219 12.642 24.657-5.186 14.437-17.828 31.957-16.856 34.228-6.321 2.271 10.535-4.38 18.962 7.787 16.369 12.166-2.593 29.686 4.214 19.79 23.987z" fill="#D84727"/><path d="M314.13 205.75l-.325-.013c.756-18.78 4.693-30.847 7.863-37.662 3.441-7.4 6.757-10.396 6.79-10.426l.216.243c-.033.029-3.31 2.995-6.724 10.345-3.152 6.787-7.067 18.804-7.82 37.513zm34.757.039l-.312-.09c3.751-12.861 12.582-20.981 12.671-21.062l.218.24c-.088.08-8.854 8.142-12.577 20.912zm-66.028-.023l-.321-.045c1.272-9.168-1.026-16.281-3.178-20.634-2.331-4.713-4.99-7.287-5.016-7.313l.224-.234c.027.026 2.727 2.64 5.083 7.403 2.172 4.394 4.492 11.573 3.208 20.823z" fill="#F2F2F2"/><path d="M367 205.744H13.795v.641H367v-.641z" fill="#3F3D56"/><path d="M262.877 12.632h-30.379v37.709h30.379V12.632z" fill="#2F2E41"/><path d="M207.413 188.529l-4.143 15.175 6.905 5.059 1.841-1.38 3.222-15.635-7.825-3.219zm52.011-1.38l-1.38 18.395h8.745v-17.015l-7.365-1.38zM231.808 70.805V81.84l17.03 2.76 14.729-5.979-2.762-6.898-28.997-.92z" fill="#F4C782"/><path d="M245.616 80.002l-14.729-2.76-3.682 29.892L218 144.382s-13.809 31.731-11.968 39.089l.921 2.299-.921 4.139 9.206 3.679 3.682-5.979s2.762 4.139 7.365-4.598c4.602-8.738 23.934-63.001 23.934-63.001l3.222 9.197a18.937 18.937 0 00-.46 8.737c.92 4.599 1.841 18.855 1.841 18.855s-5.063 24.832 1.841 26.672l1.381 5.518 9.666.92 1.841-5.519s9.206-3.219 6.904-19.314c-2.301-16.095-3.222-68.979-3.222-68.979l-9.067-22.337-18.55 6.242zm-39.584 122.783s-2.302-1.84-3.222-1.38c-.921.46-10.587 12.876-10.587 12.876s-10.126 7.818-2.761 8.738c7.364.919 27.617-9.198 27.617-11.497 0-2.299-4.256-8.058-4.256-8.058s-3.109 2.54-6.791-.679zm51.091-1.38s8.285-.514 9.666.893c1.381 1.406.921 8.304.921 8.304s.92 12.417-6.444 12.417c-7.365 0-5.524-8.278-5.524-8.278l1.381-13.336z" fill="#2F2E41"/><path d="M248.838 30.337c6.355 0 11.507-5.147 11.507-11.497 0-6.349-5.152-11.496-11.507-11.496-6.355 0-11.507 5.147-11.507 11.496 0 6.35 5.152 11.497 11.507 11.497z" fill="#F4C782"/><path d="M241.243 25.968s6.444 7.818-6.444 13.796c-12.887 5.978 9.206 30.81 9.206 30.81s25.776-9.656 23.474-28.51c0 0-15.649-2.76-11.967-15.636l-14.269-.46z" fill="#F4C782"/><path d="M234.339 39.304s-10.586-1.38-11.047 7.358c-.46 8.737 0 29.891 0 29.891s-4.602 18.394-2.301 34.49c0 0-2.762 18.854 4.603 17.934 7.364-.92 1.841-19.314 1.841-19.314l3.222-29.891-1.381-22.073 5.984-13.336-.921-5.059zm30.468 2.032s10.037-.192 10.497 7.166c.461 7.357-3.222 29.89-3.222 29.89l-5.523 2.76-5.063-15.636 3.311-24.18z" fill="#F4C782"/><path d="M267.71 79.082l-.921 2.3 2.762 6.897s-11.047 8.738-10.126 10.577c.92 1.84 5.983-2.299 5.983-2.299l7.365 3.679s5.983-6.438 3.222-12.416c-2.762-5.979-3.829-9.949-3.829-9.949s-3.996-.168-4.456 1.211z" fill="#F4C782"/><path d="M232.268 37.695l-1.381 15.175s-6.444 6.438.921 15.176l-.921 6.897s17.03-.92 20.252 0c3.222.92 13.173-.74 13.173-.74l.176-5.238s4.602-6.438 3.222-16.095c-1.381-9.657 0-12.876 0-12.876l-3.222-.46s-2.072 14.026-16.34 15.406c0 0-17.721 1.61-12.658-17.245h-3.222z" fill="#D84727"/><path d="M249.989.216S238.021-.525 235.26 6.91c-2.762 7.435-7.595 11.338-7.595 11.338s-7.613 5.287-3.806 14.726c0 0-11.843 7.951-4.019 15.014 0 0-.46 7.064 4.143 11.896 0 0 3.682 1.86 2.301 2.974-1.381 1.116 9.206.372 8.285-9.665-.92-10.037 5.294-17.108 5.294-17.108s-5.984-13.013-3.222-17.474c1.676-2.709 2.396-4.729 3.788-5.898a17.483 17.483 0 002.149-2.095 4.958 4.958 0 015.339-1.663c4.143 1.115 5.064 4.46 5.064 4.46s2.991 7.993 8.054 11.71c5.064 3.718-3.912 10.224-3.912 10.224s1.56 7.66 5.613 12.194c4.053 4.535-1.168 8.487-1.47 8.996-.691 1.16-3.448 8.485 7.942 8.517 0 0 2.644-5.543 6.326-8.89 3.683-3.345.921-13.01.921-13.01s5.523-3.346-.46-11.525c0 0 1.841-7.435-3.222-12.267 0 0-7.135-21.75-22.784-19.148z" fill="#2F2E41"/><path d="M236.41 20.45c.636 0 1.151-.823 1.151-1.84 0-1.015-.515-1.839-1.151-1.839-.635 0-1.15.824-1.15 1.84s.515 1.84 1.15 1.84z" fill="#FFB8B8"/><path d="M190.237 240.679H.321s-3.85-56.409 18.927-57.051c22.777-.641 20.21 25 48.762-10.256s63.199-33.333 67.69-12.5-8.662 37.5 15.399 32.372c24.06-5.128 58.707 8.333 39.138 47.435z" fill="#D84727"/><path d="M92.073 240.692l-.641-.025c1.495-37.14 9.28-61.003 15.548-74.481 6.806-14.635 13.364-20.559 13.429-20.617l.426.479c-.064.057-6.546 5.923-13.297 20.459-6.233 13.421-13.976 37.185-15.465 74.185zm68.735.077l-.616-.179c7.417-25.434 24.882-41.492 25.058-41.651l.431.474c-.174.158-17.509 16.103-24.873 41.356zm-130.575-.045l-.635-.089c2.516-18.131-2.03-32.198-6.286-40.807-4.608-9.32-9.867-14.411-9.92-14.461l.445-.463c.053.051 5.393 5.22 10.05 14.641 4.297 8.688 8.885 22.886 6.346 41.179z" fill="#F2F2F2"/><path d="M268.513 240.359H0V241h268.513v-.641zm-87.258-115.384H30.797V5.745h150.458v119.23zm-149.816-.641h149.174V6.386H31.439v117.948z" fill="#3F3D56"/><path d="M43.95 60.232a5.451 5.451 0 005.454-5.45 5.451 5.451 0 00-5.454-5.448 5.451 5.451 0 00-5.454 5.449 5.451 5.451 0 005.454 5.449z" fill="#D84727"/><path d="M59.349 60.232a5.451 5.451 0 005.453-5.45 5.451 5.451 0 00-5.453-5.448 5.451 5.451 0 00-5.454 5.449 5.451 5.451 0 005.454 5.449z" fill="#D0CDE1"/><path opacity=".5" d="M74.747 60.232a5.451 5.451 0 005.454-5.45 5.451 5.451 0 00-5.454-5.448 5.451 5.451 0 00-5.453 5.449 5.451 5.451 0 005.453 5.449z" fill="#D84727"/><path d="M90.146 60.232a5.451 5.451 0 005.454-5.45 5.451 5.451 0 00-5.454-5.448 5.451 5.451 0 00-5.454 5.449 5.451 5.451 0 005.454 5.449zm60.632-8.013h-44.913v5.128h44.913v-5.128zm-58.386 53.525c8.15 0 14.757-6.6 14.757-14.743s-6.607-14.744-14.757-14.744c-8.15 0-14.757 6.601-14.757 14.744 0 8.142 6.607 14.743 14.757 14.743z" fill="#F2F2F2"/><path d="M92.453 95.44l-7.385-7.379a1.282 1.282 0 111.815-1.813l5.447 5.442 17.383-19.804a1.283 1.283 0 011.929 1.69L92.452 95.44z" fill="#D84727"/></g><defs><clipPath id="clip0_0:799"><path fill="#fff" d="M0 0h367v241H0z"/></clipPath></defs></svg>