<svg width="48" height="48" fill="none" xmlns="http://www.w3.org/2000/svg"><path fill-rule="evenodd" clip-rule="evenodd" d="M10.818 10h1.211c1.004 0 1.818.814 1.818 1.818V36.05a1.817 1.817 0 01-1.818 1.817h-1.211A1.817 1.817 0 019 36.051V11.818C9 10.814 9.814 10 10.818 10zm25.444 0H18.087a1.817 1.817 0 00-1.817 1.818V36.05c0 1.004.813 1.817 1.817 1.817h18.175a1.817 1.817 0 001.818-1.817V11.818A1.817 1.817 0 0036.262 10zm.607 26.05a.607.607 0 01-.606.607H18.088a.607.607 0 01-.606-.606V11.818c0-.335.271-.606.606-.606h18.175c.334 0 .605.271.606.606V36.05zm-3.03-17.568a.606.606 0 100-1.212h-7.27a.606.606 0 000 1.212h7.27zm-9.265-2.246a.606.606 0 010 .857l-2.423 2.423a.606.606 0 01-.857 0l-1.211-1.212a.606.606 0 01.856-.856l.784.783 1.995-1.995a.606.606 0 01.856 0zm9.265 8.304a.606.606 0 100-1.212h-7.27a.606.606 0 100 1.212h7.27zm-9.265-2.246a.606.606 0 010 .857l-2.423 2.423a.606.606 0 01-.857 0l-1.211-1.212a.606.606 0 01.856-.856l.784.783 1.995-1.995a.606.606 0 01.856 0zm9.265 8.304a.606.606 0 000-1.211h-7.27a.606.606 0 100 1.211h7.27zm-9.265-2.245a.606.606 0 010 .856l-2.423 2.424a.606.606 0 01-.857 0l-1.211-1.212a.606.606 0 01.856-.857l.784.784 1.995-1.995a.606.606 0 01.856 0zM12.635 36.05a.607.607 0 01-.606.606h-1.211a.607.607 0 01-.606-.606V16.058h2.423v19.993zm-2.423-21.204h2.423v-3.03a.607.607 0 00-.606-.605h-1.211a.607.607 0 00-.606.606v3.029z" fill="#999"/></svg>