<svg width="48" height="48" fill="none" xmlns="http://www.w3.org/2000/svg"><path fill-rule="evenodd" clip-rule="evenodd" d="M35.5 14h-22a1.5 1.5 0 00-1.5 1.5v17a1.5 1.5 0 001.5 1.5h22a1.5 1.5 0 001.5-1.5v-17a1.5 1.5 0 00-1.5-1.5zm-16 5h-4a.5.5 0 010-1h4a.5.5 0 010 1zm2-1a.5.5 0 000 1h4a.5.5 0 000-1h-4zm5 12a2.5 2.5 0 110-5 2.5 2.5 0 010 5zm2.744-.351c.38.227.813.349 1.256.351a2.5 2.5 0 000-5 2.472 2.472 0 00-1.256.351 3.43 3.43 0 010 4.298z" fill="#D84727"/><circle cx="36" cy="15" r="6" fill="#D84727" stroke="#fff"/><path d="M34 15.5l2 1.5 3-4" stroke="#fff" stroke-linecap="round" stroke-linejoin="round"/></svg>