<svg width="48" height="48" fill="none" xmlns="http://www.w3.org/2000/svg"><path d="M20.295 14.397h0l-.01.01c-.433.456-1.137.471-1.619.02a1.16 1.16 0 01.005-1.615l5.008-5.003c.45-.419 1.23-.403 1.63-.006l5.013 5.009a1.16 1.16 0 01-.812 1.967c-.287 0-.584-.12-.812-.347l-2.189-2.187-.853-.852v8.401c0 .64-.517 1.157-1.16 1.157a1.156 1.156 0 01-1.159-1.157v-8.437l-.853.853-2.19 2.187z" stroke="#999"/><path d="M30.686 20.72h0a1.128 1.128 0 01.05-1.62 1.133 1.133 0 011.624.05l.002.002.011.012.043.046.165.176.59.63 1.822 1.945 2.978 3.182c.403.433.628.962.485 1.462h0l-.002.006-3.317 12.269a1.502 1.502 0 01-1.425 1.082h-18.43a1.502 1.502 0 01-1.425-1.082l-3.318-12.27h0l-.002-.006c-.068-.239-.04-.514.063-.79.104-.278.268-.517.41-.66l.008-.007.007-.008a10364.145 10364.145 0 014.787-5.114l.598-.637.166-.178.044-.047.011-.012.003-.002c.435-.458 1.145-.473 1.628-.046.468.448.487 1.15.046 1.616h0l-3.001 3.174-.798.844h19.975l-.797-.844-3.001-3.174zM18.742 36.835a1.6 1.6 0 001.594-1.593v-5.749a1.6 1.6 0 00-1.594-1.593 1.6 1.6 0 00-1.595 1.593v5.749a1.6 1.6 0 001.595 1.593zm5.755 0a1.6 1.6 0 001.594-1.593v-5.749a1.6 1.6 0 00-1.594-1.593 1.6 1.6 0 00-1.595 1.593v5.749a1.6 1.6 0 001.595 1.593zm5.755 0a1.6 1.6 0 001.594-1.593v-5.749a1.6 1.6 0 00-1.594-1.593 1.6 1.6 0 00-1.595 1.593v5.749a1.6 1.6 0 001.595 1.593z" stroke="#999"/></svg>