<svg width="24" height="24" fill="none" xmlns="http://www.w3.org/2000/svg"><path fill-rule="evenodd" clip-rule="evenodd" d="M13.973 6H2.41a.302.302 0 00-.31.31v8.29c0 .177.133.31.31.31h1.77a.31.31 0 00.309-.265c.066-.332.265-.62.508-.84l.022-.023a1.47 1.47 0 01.929-.31c.354 0 .685.133.929.332.265.222.442.509.53.84.022.155.155.244.31.244h6.28c.176 0 .31-.133.31-.31V6.31a.353.353 0 00-.334-.31zm-11.276.62h10.945v7.672H7.915a2.247 2.247 0 00-.663-.951 2.102 2.102 0 00-1.327-.464c-.487 0-.95.177-1.305.464l-.022.022c-.31.243-.53.575-.663.951H2.719V6.619h-.022z" fill="#000"/><path fill-rule="evenodd" clip-rule="evenodd" d="M18.949 10.643l-.907-2.72a.305.305 0 00-.287-.22H13.95a.302.302 0 00-.31.31V14.6c0 .177.133.31.31.31h1.725a.31.31 0 00.31-.265c.066-.332.265-.62.508-.84.266-.2.575-.332.929-.332.354 0 .685.132.929.331.265.222.442.509.53.84.022.155.155.244.31.244h2.498c.177 0 .31-.133.31-.31v-2.52a.332.332 0 00-.221-.31l-2.83-1.106zm-1.416-2.3l.885 2.632a.314.314 0 00.177.2l2.808 1.105v2.012h-1.946a2.246 2.246 0 00-.663-.95 2.101 2.101 0 00-1.327-.465c-.508 0-.973.177-1.327.464a2.07 2.07 0 00-.663.95h-1.172v-5.97h3.229v.023z" fill="#000"/><path fill-rule="evenodd" clip-rule="evenodd" d="M18.727 11.196c.177 0 .31-.132.31-.31a.302.302 0 00-.31-.309h-4.753a.302.302 0 00-.31.31c0 .177.133.31.31.31h4.753zm-1.282 1.658a2.2 2.2 0 00-1.503.62l-.023.022a2.089 2.089 0 00-.597 1.481c0 .575.244 1.106.62 1.504.375.376.906.619 1.503.619.575 0 1.106-.243 1.504-.62a2.12 2.12 0 00.619-1.503c0-.575-.243-1.105-.62-1.503a2.12 2.12 0 00-1.503-.62zm-1.04 1.062a1.504 1.504 0 011.062-.442c.42 0 .796.176 1.062.442.265.265.442.641.442 1.061 0 .42-.177.796-.442 1.062a1.504 1.504 0 01-1.062.442c-.42 0-.796-.177-1.061-.442a1.504 1.504 0 01-.442-1.062c0-.398.155-.774.442-1.061zm-10.48-1.062c-.575 0-1.106.244-1.504.62l-.022.022a2.089 2.089 0 00-.597 1.481c0 .575.243 1.106.62 1.504.375.376.906.619 1.503.619.575 0 1.105-.243 1.503-.62a2.12 2.12 0 00.62-1.503 2.2 2.2 0 00-.62-1.503 2.202 2.202 0 00-1.503-.62zm-1.061 1.062a1.504 1.504 0 011.06-.442 1.5 1.5 0 011.062.442 1.5 1.5 0 010 2.123 1.504 1.504 0 01-1.061.442c-.42 0-.796-.177-1.061-.442a1.504 1.504 0 01-.443-1.062c0-.398.177-.774.443-1.061z" fill="#000"/></svg>