<svg width="17" height="19" fill="none" xmlns="http://www.w3.org/2000/svg"><path fill-rule="evenodd" clip-rule="evenodd" d="M15.697 2.297H12.06L11.703.87A1.149 1.149 0 0010.59 0H5.491c-.527 0-.986.359-1.114.87L4.02 2.297H.383a.383.383 0 000 .766H1.57l.71 14.224a1.15 1.15 0 001.148 1.09h9.263c.612 0 1.117-.48 1.147-1.091l.711-14.223h1.148a.383.383 0 100-.766zM6.126 13.4a.383.383 0 01-.766 0V7.274a.383.383 0 01.766 0V13.4zm1.914 1.15a.383.383 0 00.383-.383V6.509a.383.383 0 00-.766 0v7.657c0 .211.171.383.383.383zm2.68-1.149a.383.383 0 01-.765 0V7.274a.383.383 0 11.765 0V13.4zM5.12 1.056l-.31 1.241h6.46l-.31-1.241a.382.382 0 00-.371-.29H5.49c-.176 0-.33.12-.372.29z" fill="#D93F3F"/></svg>